<svg width="72" height="71" viewBox="0 0 72 71" fill="none" xmlns="http://www.w3.org/2000/svg">
<ellipse cx="36" cy="35.5" rx="36" ry="35.5" fill="white"/>
<path fill-rule="evenodd" clip-rule="evenodd" d="M44.3344 26.967C43.7027 26.3199 42.8714 25.917 41.9821 25.8271C41.0927 25.7372 40.2005 25.9658 39.4573 26.4739C38.7142 26.982 38.1661 27.7383 37.9066 28.6138C37.647 29.4893 37.6919 30.4298 38.0338 31.2752C38.3756 32.1205 38.9932 32.8183 39.7813 33.2497C40.5693 33.6812 41.4791 33.8194 42.3556 33.641C43.2321 33.4626 44.021 32.9786 44.588 32.2714C45.155 31.5642 45.4649 30.6776 45.4649 29.7626C45.4657 29.2434 45.3662 28.7291 45.1722 28.2493C44.9781 27.7696 44.6935 27.3338 44.3344 26.967ZM45.5578 25.714C46.4727 26.6506 47.042 27.8831 47.1689 29.2013C47.2957 30.5196 46.9722 31.8421 46.2534 32.9435C45.5346 34.0449 44.4651 34.857 43.227 35.2416C41.9889 35.6261 40.6589 35.5593 39.4636 35.0524C38.2683 34.5455 37.2816 33.6299 36.6717 32.4617C36.0618 31.2935 35.8663 29.945 36.1187 28.6458C36.3711 27.3466 37.0556 26.1772 38.0557 25.3368C39.0558 24.4965 40.3096 24.0371 41.6034 24.0371C42.3379 24.036 43.0655 24.1836 43.7441 24.4714C44.4227 24.7592 45.0391 25.1815 45.5578 25.714ZM47.641 16.4043C47.9023 17.0399 48.219 17.65 48.5871 18.2275C49.143 19.1001 49.7874 19.9102 50.5097 20.6441C51.2265 21.3836 52.0177 22.0434 52.8701 22.6125C53.4341 22.9894 54.03 23.3136 54.6508 23.5812C55.5871 20.5954 55.5199 18.161 54.2274 16.8378C52.935 15.5145 50.5573 15.4457 47.641 16.4043ZM30.8679 47.2661L24.2511 40.4916L22.1259 42.6693C22.0663 42.7318 22.033 42.8157 22.033 42.903C22.033 42.9903 22.0663 43.0742 22.1259 43.1367L28.2872 49.4448C28.3482 49.5058 28.4301 49.5399 28.5154 49.5399C28.6007 49.5399 28.6826 49.5058 28.7437 49.4448L30.8688 47.269L30.8679 47.2661ZM25.8983 49.5031C25.4058 50.7689 24.4629 51.7966 23.2597 52.379C21.796 52.9971 20.2015 53.2184 18.6299 53.0217C18.4378 51.4127 18.654 49.7801 19.2577 48.2816C19.8264 47.0498 20.8302 46.0845 22.0667 45.5806L25.8983 49.5031ZM25.235 38.9934C26.0306 36.7967 27.0828 34.7065 28.3689 32.7685C30.044 30.2091 31.9637 27.8267 34.0998 25.6567C38.0672 21.5946 42.3204 18.5988 46.0218 17.0165C46.3261 17.7717 46.6983 18.4962 47.1336 19.1808C47.7558 20.1606 48.4772 21.0704 49.2858 21.8952C50.0915 22.7231 50.9801 23.4617 51.937 24.0987C52.6057 24.5445 53.3134 24.9255 54.051 25.2371C52.5055 29.0267 49.5808 33.3802 45.612 37.4432C43.5026 39.6213 41.1877 41.58 38.7011 43.2906C36.7984 44.6173 34.7451 45.7021 32.5865 46.5211L25.235 38.9934ZM17.5251 30.4981C18.809 30.7933 20.0697 31.1863 21.2965 31.6737C22.8145 32.2771 24.2819 33.0064 25.684 33.8543C26.0649 33.1731 26.4794 32.4858 26.9275 31.7922C28.3698 29.5814 29.9916 27.499 31.7757 25.5673C29.4767 25.221 27.1322 25.3724 24.8938 26.0117C22.1633 26.7938 19.6768 28.2857 17.6758 30.3423C17.6236 30.3958 17.5736 30.4479 17.5251 30.4981ZM40.9126 56.7607C40.7976 56.871 40.6553 56.947 40.5012 56.9806C40.3471 57.0142 40.1869 57.004 40.038 56.9513C39.8891 56.8985 39.7571 56.8051 39.6562 56.6811C39.5554 56.5572 39.4895 56.4074 39.4656 56.2479C39.199 54.5179 38.7511 52.8223 38.1298 51.1905C37.5664 49.7046 36.8836 48.269 36.0886 46.8986C34.9337 47.5022 33.7328 48.009 32.4978 48.414C32.3879 48.4492 32.2722 48.4616 32.1576 48.4503L29.9638 50.6963C29.6004 51.0671 29.1149 51.2855 28.6025 51.3088C28.09 51.332 27.5875 51.1584 27.1936 50.822C26.4993 52.2116 25.3703 53.3231 23.9869 53.9789C22.3439 54.769 20.2664 55.0134 17.7542 54.712C17.692 54.7058 17.6307 54.6927 17.5713 54.6728H17.5671L17.5531 54.668L17.5381 54.6623H17.5353C17.4318 54.6224 17.3368 54.5625 17.2553 54.486L17.2436 54.475L17.2347 54.4645L17.2268 54.4563L17.2184 54.4477L17.2133 54.4425L17.2025 54.4305C17.1278 54.3471 17.0693 54.2498 17.0303 54.1438V54.1409L17.0247 54.1256L17.02 54.1113V54.107C17.0006 54.0462 16.9878 53.9834 16.9818 53.9197C16.6871 51.3483 16.9259 49.2203 17.6982 47.5356C18.3389 46.1191 19.4246 44.9632 20.7821 44.2526C20.4536 43.8492 20.284 43.3348 20.3067 42.8102C20.3293 42.2855 20.5425 41.7884 20.9044 41.4163L23.4889 38.7703C23.8694 37.6185 24.3306 36.4964 24.8691 35.4127C23.5304 34.5987 22.1281 33.8997 20.6766 33.3229C19.0821 32.6859 17.4252 32.2267 15.7346 31.9533C15.5788 31.9289 15.4325 31.8614 15.3114 31.7581C15.1904 31.6549 15.0991 31.5197 15.0476 31.3672C14.9961 31.2148 14.9862 31.0508 15.019 30.893C15.0518 30.7352 15.126 30.5896 15.2337 30.4718C15.4108 30.2517 15.6019 30.0252 15.8069 29.7923C16.0484 29.5186 16.2636 29.2849 16.4524 29.0912C18.6129 26.8787 21.2815 25.2572 24.2135 24.3757C27.1454 23.4942 30.2467 23.3809 33.2325 24.0462C37.3521 19.9101 41.7696 16.8674 45.6269 15.2741C49.8179 13.5428 53.4218 13.5093 55.4513 15.5848C57.4808 17.6602 57.4457 21.3523 55.7547 25.6433C54.1985 29.5925 51.2271 34.1171 47.1887 38.333C47.8384 41.3901 47.7277 44.5653 46.8668 47.5672C46.0058 50.569 44.4221 53.3014 42.2611 55.5134C42.0725 55.7065 41.8443 55.9268 41.5763 56.1743C41.3489 56.384 41.1276 56.5794 40.9126 56.7607ZM37.6075 46.0623C38.4356 47.4978 39.1478 49.0001 39.7368 50.5544C40.2129 51.8105 40.5967 53.1012 40.8851 54.4157C40.9339 54.3663 40.9846 54.3149 41.0372 54.2614C43.0459 52.2128 44.503 49.6672 45.267 46.8718C45.8914 44.58 46.0393 42.1795 45.7011 39.8254C43.824 41.6417 41.8014 43.2937 39.6547 44.7639C38.9667 45.2313 38.2843 45.6641 37.6075 46.0623Z" fill="#FF5289"/>
</svg>
