<svg width="72" height="71" viewBox="0 0 72 71" fill="none" xmlns="http://www.w3.org/2000/svg">
<ellipse cx="36" cy="35.5" rx="36" ry="35.5" fill="white"/>
<path fill-rule="evenodd" clip-rule="evenodd" d="M51.5859 47.5845L51.159 47.8052L50.8535 47.6093C50.6438 47.4767 50.4234 47.3622 50.1947 47.2671C49.9683 47.1718 49.7343 47.0962 49.4952 47.0411L49.1399 46.9588L48.8751 46.1333H48.1143L47.8495 46.9588L47.4942 47.0411C47.2553 47.0961 47.0215 47.1717 46.7954 47.2671C46.5667 47.3623 46.3463 47.4768 46.1366 47.6093L45.8311 47.8052L45.4048 47.5845L45.0683 47.4114L44.5322 47.9515L44.9198 48.7248L44.726 49.035C44.5955 49.2475 44.4825 49.4706 44.3882 49.7018C44.2934 49.9318 44.218 50.1695 44.1628 50.4124L44.0821 50.7683L43.267 51.0367V51.8041L44.0821 52.0725L44.1628 52.4285C44.2181 52.6716 44.293 52.9097 44.3869 53.1403C44.4821 53.3704 44.5955 53.5923 44.726 53.8039L44.9198 54.1161L44.5322 54.89L45.0664 55.4301L45.8304 55.0382L46.1379 55.2342C46.3488 55.3669 46.5703 55.4818 46.7999 55.5777C47.026 55.6727 47.2595 55.7482 47.4981 55.8036L47.8527 55.8853L48.1182 56.7095H48.8771L49.1425 55.8853L49.4971 55.8036C49.7357 55.7482 49.9692 55.6727 50.1953 55.5777C50.425 55.4819 50.6465 55.367 50.8573 55.2342L51.1648 55.0382L51.9288 55.4301L52.4636 54.89L52.2912 54.5478L52.0729 54.1167L52.2666 53.8078C52.3976 53.5952 52.5108 53.372 52.6051 53.1403C52.6997 52.9103 52.7749 52.6726 52.8298 52.4298L52.9106 52.0738L53.7263 51.8054V51.0387L52.9048 50.7703L52.824 50.4143C52.7131 49.9276 52.5228 49.463 52.2608 49.0396L52.0671 48.73L52.286 48.297L52.4585 47.9548L51.9217 47.4147L51.5852 47.5878L51.5859 47.5845ZM30.1388 43.6111C29.9694 43.6111 29.8069 43.543 29.6871 43.4219C29.5673 43.3008 29.5 43.1365 29.5 42.9652C29.5 42.7939 29.5673 42.6296 29.6871 42.5084C29.8069 42.3873 29.9694 42.3193 30.1388 42.3193H42.798C42.9675 42.3193 43.1299 42.3873 43.2497 42.5084C43.3695 42.6296 43.4368 42.7939 43.4368 42.9652C43.4368 43.1365 43.3695 43.3008 43.2497 43.4219C43.1299 43.543 42.9675 43.6111 42.798 43.6111H30.1388ZM48.4934 48.0854C49.0362 48.0852 49.5707 48.2204 50.0495 48.479C50.5283 48.7377 50.9366 49.1117 51.2383 49.568C51.54 50.0243 51.7257 50.5488 51.779 51.095C51.8323 51.6413 51.7515 52.1924 51.5438 52.6995C51.3362 53.2066 51.008 53.6541 50.5884 54.0023C50.1688 54.3506 49.6708 54.5888 49.1384 54.6959C48.606 54.803 48.0557 54.7756 47.5363 54.6163C47.0168 54.4569 46.5443 54.1705 46.1605 53.7823C45.6994 53.3157 45.3854 52.7213 45.2583 52.0742C45.1312 51.4272 45.1966 50.7566 45.4462 50.1471C45.6959 49.5377 46.1186 49.0167 46.661 48.6501C47.2033 48.2835 47.841 48.0877 48.4934 48.0874V48.0854ZM49.924 49.9755C50.207 50.2615 50.3997 50.626 50.4777 51.0228C50.5558 51.4196 50.5158 51.8309 50.3627 52.2046C50.2096 52.5784 49.9503 52.8979 49.6176 53.1227C49.285 53.3475 48.8938 53.4674 48.4937 53.4674C48.0936 53.4674 47.7025 53.3475 47.3698 53.1227C47.0372 52.8979 46.7779 52.5784 46.6248 52.2046C46.4717 51.8309 46.4317 51.4196 46.5097 51.0228C46.5878 50.626 46.7805 50.2615 47.0634 49.9755C47.4432 49.5927 47.9575 49.3778 48.4937 49.3778C49.0299 49.3778 49.5443 49.5927 49.924 49.9755ZM40.199 23.3051H43.1907C43.3599 23.3041 43.5225 23.3711 43.6429 23.4913L48.9106 28.0505C48.9806 28.1108 49.0368 28.1858 49.0753 28.2703C49.1138 28.3548 49.1336 28.4467 49.1335 28.5397V44.8435H49.7981L50.1327 45.8819C50.3188 45.9377 50.5021 46.0031 50.6816 46.0778C50.8599 46.1536 51.0362 46.2385 51.208 46.3325L52.1704 45.8368L54.0163 47.7053L53.5274 48.6771C53.7134 49.0231 53.8631 49.3878 53.9743 49.7652L55 50.1022V52.7407L53.9743 53.0783C53.9192 53.267 53.8546 53.4527 53.7806 53.6347C53.7058 53.8163 53.6218 53.9937 53.5287 54.1664L54.0183 55.1375L52.1698 57.006L51.21 56.511C51.0389 56.606 50.8627 56.6915 50.6823 56.767C50.5029 56.8416 50.3199 56.907 50.1339 56.9629L49.8 58H47.1894L46.8555 56.9635C46.6695 56.9076 46.4865 56.8422 46.3071 56.7676C46.1268 56.6919 45.9507 56.6064 45.7794 56.5116L44.819 57.0066L42.9711 55.1382L43.4407 54.2068H24.4396C24.2701 54.2068 24.1077 54.1388 23.9879 54.0177C23.8681 53.8965 23.8008 53.7322 23.8008 53.5609V47.2325L19.3442 34.9282L18.0389 31.3231C17.9808 31.1626 17.988 30.9852 18.0591 30.8301C18.1302 30.6749 18.2593 30.5547 18.418 30.4957L22.3062 29.0589C22.4651 29.0003 22.6405 29.0078 22.7939 29.0798C22.9473 29.1518 23.0662 29.2824 23.1245 29.4429L23.8014 31.3127V23.951C23.8014 23.7797 23.8687 23.6154 23.9885 23.4943C24.1083 23.3732 24.2708 23.3051 24.4402 23.3051H24.7728C24.5729 22.1655 24.6223 20.9954 24.9177 19.8772C25.2131 18.759 25.7472 17.7198 26.4825 16.8328C27.2178 15.9458 28.1364 15.2325 29.1736 14.7431C30.2109 14.2536 31.3416 14 32.4862 14C33.6309 14 34.7616 14.2536 35.7989 14.7431C36.8361 15.2325 37.7547 15.9458 38.49 16.8328C39.2253 17.7198 39.7594 18.759 40.0548 19.8772C40.3502 20.9954 40.399 22.1655 40.199 23.3051ZM47.8546 44.8435H47.1894L46.8555 45.8819C46.6691 45.9372 46.4858 46.0026 46.3065 46.0778C46.1267 46.1535 45.9508 46.2382 45.7794 46.3319L44.8171 45.8362L42.9711 47.706L43.4607 48.6784C43.3678 48.8509 43.2837 49.0281 43.2088 49.2094C43.1352 49.3905 43.0706 49.576 43.0151 49.7658L41.9894 50.1061V52.7446L42.5164 52.9183H25.0777V49.7985L27.8827 52.1692C27.9688 52.2414 28.072 52.2896 28.1822 52.3089C28.2924 52.3282 28.4056 52.3179 28.5107 52.2791C28.6157 52.2403 28.7088 52.1744 28.7808 52.0878C28.8527 52.0012 28.901 51.8971 28.9207 51.7858L29.2766 49.724L29.6311 47.6589V47.6433V47.6289V47.6158V47.5159V47.5055V47.4806V47.4709V47.4545V47.4493V47.4388V47.4232V47.4179L29.6253 47.3912V47.3873V47.3755L29.6163 47.3468L29.6111 47.3324L29.6053 47.318L25.0874 34.844V24.5969H25.1223C25.7964 26.4868 27.1536 28.0482 28.9207 28.9668V29.5337C28.7876 29.5725 28.6706 29.654 28.5873 29.7659C28.504 29.8778 28.4589 30.014 28.4589 30.1541V32.8318C28.4589 32.9719 28.5039 33.1083 28.5872 33.2203C28.6705 33.3323 28.7875 33.4139 28.9207 33.4529V34.0269C28.9227 34.4313 29.0826 34.8185 29.3655 35.1044C29.6484 35.3902 30.0315 35.5515 30.4314 35.5532H34.5573C34.9573 35.5524 35.3408 35.3913 35.6236 35.1052C35.9065 34.8192 36.0658 34.4315 36.0667 34.0269V33.4522C36.2001 33.4136 36.3175 33.3321 36.4011 33.2201C36.4846 33.108 36.5298 32.9715 36.5298 32.8311V30.1535C36.5298 30.0131 36.4846 29.8766 36.4011 29.7645C36.3175 29.6525 36.2001 29.571 36.0667 29.5324V28.9635C37.83 28.0437 39.1842 26.484 39.858 24.5969H42.552V28.5397C42.552 28.711 42.6192 28.8754 42.739 28.9966C42.8588 29.1179 43.0213 29.1861 43.1907 29.1862H47.8546V44.8435ZM34.0225 24.6107V29.5089H34.7801V28.9047C34.7793 28.6841 34.8394 28.4676 34.9538 28.2797C35.0683 28.092 35.2326 27.9404 35.4279 27.8422C36.5163 27.2872 37.4313 26.4381 38.0715 25.3891C38.7636 24.251 39.0996 22.928 39.0355 21.5935C38.9715 20.259 38.5103 18.9751 37.7125 17.9101C36.9147 16.8451 35.8174 16.0485 34.5643 15.6247C33.3111 15.2009 31.9607 15.1697 30.6897 15.5351C29.4188 15.9005 28.2866 16.6455 27.4414 17.6726C26.5963 18.6996 26.0776 19.9608 25.9532 21.291C25.8289 22.6211 26.1048 23.9582 26.7447 25.1272C27.3846 26.2962 28.3587 27.2425 29.5394 27.8422C29.7347 27.9404 29.8991 28.0917 30.0141 28.2791C30.1285 28.4666 30.1891 28.6825 30.1892 28.9028V29.5069H30.9449V24.6087H30.0329C29.6004 24.6081 29.1778 24.4779 28.8184 24.2346C28.459 23.9913 28.179 23.6458 28.0136 23.2418C27.8482 22.8377 27.8049 22.3931 27.8892 21.9642C27.9734 21.5353 28.1814 21.1412 28.487 20.8317C28.7925 20.5222 29.1819 20.3112 29.6059 20.2252C30.03 20.1393 30.4697 20.1823 30.8696 20.3488C31.2695 20.5153 31.6116 20.7979 31.8529 21.1608C32.0941 21.5238 32.2236 21.9509 32.225 22.3882V29.5069H32.7417V22.3882C32.7425 22.0975 32.7999 21.8097 32.9108 21.5414C33.0216 21.2732 33.1836 21.0296 33.3876 20.8247C33.5908 20.6191 33.8322 20.4561 34.0977 20.3449C34.3633 20.2336 34.648 20.1764 34.9354 20.1764C35.2229 20.1764 35.5075 20.2336 35.7731 20.3449C36.0387 20.4561 36.28 20.6191 36.4833 20.8247C36.6865 21.0302 36.8478 21.2742 36.9578 21.5428C37.0678 21.8113 37.1244 22.0991 37.1244 22.3898C37.1244 22.6805 37.0678 22.9683 36.9578 23.2369C36.8478 23.5054 36.6865 23.7494 36.4833 23.955C36.2807 24.1615 36.0397 24.3254 35.7743 24.4375C35.5088 24.5496 35.2241 24.6075 34.9364 24.608L34.0225 24.6107ZM35.5836 21.7371C35.4989 21.651 35.3982 21.5828 35.2874 21.5362C35.1766 21.4896 35.0577 21.4657 34.9377 21.4657C34.8177 21.4657 34.6988 21.4896 34.588 21.5362C34.4771 21.5828 34.3765 21.651 34.2918 21.7371C34.2071 21.8228 34.1399 21.9247 34.0941 22.0367C34.0483 22.1488 34.0249 22.2689 34.0251 22.3901V23.3045H35.0979C35.2635 23.2759 35.4181 23.2018 35.5447 23.0901C35.6713 22.9784 35.765 22.8336 35.8155 22.6716C35.866 22.5096 35.8713 22.3366 35.8308 22.1717C35.7903 22.0068 35.7057 21.8564 35.5861 21.7371H35.5836ZM30.0329 21.4647C29.9128 21.465 29.794 21.4892 29.6831 21.5359C29.5723 21.5826 29.4717 21.651 29.387 21.7371C29.2681 21.857 29.1841 22.0077 29.1443 22.1726C29.1044 22.3376 29.1102 22.5105 29.161 22.6723C29.2118 22.8342 29.3057 22.9788 29.4324 23.0903C29.5591 23.2018 29.7136 23.2759 29.8792 23.3045H30.9449V22.3901C30.9449 22.1448 30.8485 21.9095 30.677 21.736C30.5055 21.5625 30.2729 21.4649 30.0303 21.4647H30.0329ZM34.7801 33.4757H30.1892V34.025C30.1883 34.0865 30.2115 34.1459 30.2538 34.1902C30.2981 34.2347 30.358 34.2596 30.4204 34.2594H34.5463C34.6077 34.2591 34.6664 34.2343 34.7097 34.1902C34.7314 34.1687 34.7486 34.143 34.7604 34.1146C34.7722 34.0862 34.7782 34.0557 34.7782 34.025V33.4783L34.7801 33.4757ZM35.2432 30.8013H29.7274V32.1839H35.2432V30.8039V30.8013ZM27.8537 50.4594L28.1857 48.5347L26.3714 49.2113L27.8537 50.464V50.4594ZM23.0096 32.8801L22.1428 30.4865L19.4547 31.4871L20.3214 33.8807L23.0122 32.8847L23.0096 32.8801ZM23.4481 34.0909L20.7574 35.0876L25.493 48.1579L28.185 47.1672L23.4527 34.0955L23.4481 34.0909ZM30.1388 40.8975H42.798C42.9675 40.8975 43.1299 40.8294 43.2497 40.7083C43.3695 40.5872 43.4368 40.4229 43.4368 40.2516C43.4368 40.0803 43.3695 39.916 43.2497 39.7948C43.1299 39.6737 42.9675 39.6057 42.798 39.6057H30.1388C29.9694 39.6057 29.8069 39.6737 29.6871 39.7948C29.5673 39.916 29.5 40.0803 29.5 40.2516C29.5 40.4229 29.5673 40.5872 29.6871 40.7083C29.8069 40.8294 29.9694 40.8975 30.1388 40.8975ZM30.1388 38.1832H37.7912C37.9606 38.1832 38.1231 38.1152 38.2429 37.994C38.3627 37.8729 38.43 37.7086 38.43 37.5373C38.43 37.366 38.3627 37.2017 38.2429 37.0806C38.1231 36.9595 37.9606 36.8914 37.7912 36.8914H30.1388C29.9694 36.8914 29.8069 36.9595 29.6871 37.0806C29.5673 37.2017 29.5 37.366 29.5 37.5373C29.5 37.7086 29.5673 37.8729 29.6871 37.994C29.8069 38.1152 29.9694 38.1832 30.1388 38.1832ZM46.7689 27.8944L43.8295 25.3539V27.8944H46.7689Z" fill="#48A3FF"/>
</svg>
