<svg width="737" height="277" viewBox="0 0 737 277" fill="none" xmlns="http://www.w3.org/2000/svg">
<path d="M889.876 438.992V-137M858.839 438.992V-137M827.801 438.992V-137M796.764 438.992V-137M765.727 438.992V-137M734.683 438.992V-137M703.645 438.992V-137M672.608 438.992V-137M641.57 438.992V-137M610.53 438.992V-137M579.492 438.992V-137M548.455 438.992V-137M517.414 438.992V-137M486.372 438.992V-137M455.318 439V-136.991M424.28 439V-136.991M393.24 439V-136.991M362.202 439V-136.991M331.164 439V-136.991M300.124 439V-136.991M269.086 439V-136.991M238.044 439L238.045 -136.991M207.008 439V-136.991M175.973 439V-136.991M144.928 439L144.929 -136.991M113.888 439V-136.991M82.8501 439V-136.991M51.8123 439L51.8124 -136.991M20.7782 439L20.7783 -136.991M0.000243139 414.04L974 414.04M0.000243139 378.918H974M0.000243139 343.796H974M0.000243139 308.674L974 308.675M0.000243139 273.553H974M0.000243139 238.433H974M0.000243139 203.309L974 203.31M0.000243139 168.188H974M0.000243139 133.067H974M0.000243139 97.9453L974 97.946M0.000243139 62.824H974M0.000243139 27.7035H974M0.000243139 -7.41847L974 -7.41774M0.000243139 -42.5397H974M0.000243139 -77.6617L974 -77.6615M0 -112.782L974 -112.782" stroke="url(#paint0_radial_1_182)" stroke-opacity="0.51" stroke-width="1.02479" stroke-dasharray="6.15 6.15"/>
<defs>
<radialGradient id="paint0_radial_1_182" cx="0" cy="0" r="1" gradientUnits="userSpaceOnUse" gradientTransform="translate(487 151) rotate(135) scale(218.496 369.471)">
<stop stop-opacity="0.7"/>
<stop offset="1" stop-opacity="0"/>
</radialGradient>
</defs>
</svg>
