<svg width="60" height="59" viewBox="0 0 60 59" fill="none" xmlns="http://www.w3.org/2000/svg">
<ellipse cx="29.8319" cy="29.3063" rx="29.4247" ry="28.8993" fill="#FCD6FF"/>
<path d="M32.8943 18.0058C32.5438 18.0332 32.2103 18.1678 31.9389 18.3913C31.6675 18.6148 31.4715 18.9163 31.3773 19.2551L26.1659 38.762C26.1515 38.8149 26.1396 38.8685 26.1302 38.9226L25.8804 39.8149C25.7644 40.2551 25.8281 40.7234 26.0573 41.1167C26.2866 41.5099 26.6627 41.796 27.1029 41.912C27.5431 42.028 28.0113 41.9643 28.4046 41.735C28.7979 41.5058 29.084 41.1297 29.1999 40.6895L29.4676 39.6543L34.6969 20.1296C34.763 19.8654 34.7652 19.5893 34.7033 19.3241C34.6414 19.0589 34.5172 18.8123 34.341 18.6047C34.1648 18.3971 33.9417 18.2345 33.6901 18.1303C33.4385 18.0262 33.1657 17.9835 32.8943 18.0058ZM22.0254 19.8262C21.6435 19.8812 21.2913 20.0636 21.026 20.3437L12.5129 28.7497C12.3505 28.9092 12.2215 29.0995 12.1334 29.3094C12.0454 29.5193 12 29.7446 12 29.9723C12 30.1999 12.0454 30.4252 12.1334 30.6351C12.2215 30.845 12.3505 31.0353 12.5129 31.1948L21.026 39.6186C21.1865 39.7768 21.3766 39.9019 21.5855 39.9866C21.7944 40.0713 22.0179 40.1141 22.2433 40.1124C22.4686 40.1107 22.6915 40.0647 22.8991 39.9769C23.1067 39.8891 23.295 39.7613 23.4532 39.6008C23.6114 39.4402 23.7364 39.2501 23.8211 39.0412C23.9058 38.8324 23.9486 38.6089 23.9469 38.3835C23.9453 38.1581 23.8992 37.9352 23.8115 37.7276C23.7237 37.52 23.5959 37.3318 23.4353 37.1736L16.1715 29.9812L23.4353 22.7709C23.6999 22.5218 23.8784 22.195 23.9451 21.8377C24.0118 21.4805 23.9631 21.1113 23.8062 20.7835C23.6492 20.4557 23.3921 20.1863 23.072 20.0142C22.7519 19.8421 22.3854 19.7763 22.0254 19.8262ZM38.1592 19.8262C37.8326 19.8579 37.522 19.9828 37.2643 20.186C37.0067 20.3891 36.8127 20.662 36.7056 20.9721C36.5985 21.2823 36.5826 21.6166 36.66 21.9355C36.7373 22.2544 36.9046 22.5444 37.1419 22.7709L44.4057 29.9812L37.1419 37.1736C36.9814 37.3318 36.8536 37.52 36.7658 37.7276C36.678 37.9352 36.632 38.1581 36.6303 38.3835C36.6269 38.8387 36.8046 39.2765 37.1241 39.6008C37.4436 39.925 37.8788 40.1091 38.334 40.1124C38.7892 40.1157 39.227 39.9381 39.5513 39.6186L48.0644 31.1948C48.2268 31.0353 48.3558 30.845 48.4438 30.6351C48.5319 30.4252 48.5772 30.1999 48.5772 29.9723C48.5772 29.7446 48.5319 29.5193 48.4438 29.3094C48.3558 29.0995 48.2268 28.9092 48.0644 28.7497L39.5513 20.3437C39.3729 20.1586 39.1552 20.0159 38.9142 19.9263C38.6732 19.8367 38.4152 19.8025 38.1592 19.8262Z" fill="#F02CFF"/>
</svg>
