<svg width="60" height="59" viewBox="0 0 60 59" fill="none" xmlns="http://www.w3.org/2000/svg">
<ellipse cx="29.8319" cy="29.3066" rx="29.4247" ry="28.8993" fill="#FFFADC"/>
<path d="M44.2188 18.3744C44.2122 18.3229 44.2021 18.2719 44.1884 18.2218C44.1406 18.0148 44.0386 17.8242 43.893 17.6695L36.5805 10.357C36.4261 10.2116 36.236 10.1097 36.0294 10.0617C35.9785 10.0478 35.9266 10.0375 35.8742 10.031C35.8231 10.0172 35.7712 10.0068 35.7188 10H19.875C18.5825 10.0013 17.3432 10.5153 16.4293 11.4293C15.5153 12.3432 15.0013 13.5825 15 14.875V44.125C15.0013 45.4175 15.5153 46.6568 16.4293 47.5707C17.3432 48.4847 18.5825 48.9987 19.875 49H39.375C40.6675 48.9987 41.9068 48.4847 42.8207 47.5707C43.7347 46.6568 44.2487 45.4175 44.25 44.125V18.5312C44.2431 18.4783 44.2327 18.4259 44.2188 18.3744ZM39.375 46.5625H19.875C19.2288 46.5617 18.6093 46.3046 18.1524 45.8476C17.6954 45.3907 17.4383 44.7712 17.4375 44.125V14.875C17.4383 14.2288 17.6954 13.6093 18.1524 13.1524C18.6093 12.6954 19.2288 12.4383 19.875 12.4375H34.5V18.5312C34.4999 18.6913 34.5314 18.8498 34.5926 18.9978C34.6538 19.1457 34.7436 19.2801 34.8568 19.3932C34.9699 19.5064 35.1043 19.5962 35.2522 19.6574C35.4002 19.7186 35.5587 19.7501 35.7188 19.75H41.8125V44.125C41.8117 44.7712 41.5546 45.3907 41.0976 45.8476C40.6407 46.3046 40.0212 46.5617 39.375 46.5625ZM39.375 38.9358V40.4688C39.375 40.792 39.2466 41.102 39.018 41.3305C38.7895 41.5591 38.4795 41.6875 38.1562 41.6875C37.833 41.6875 37.523 41.5591 37.2945 41.3305C37.0659 41.102 36.9375 40.792 36.9375 40.4688V38.9358C36.9369 38.5057 36.823 38.0834 36.6071 37.7115C36.3913 37.3395 36.0812 37.0311 35.708 36.8173L32.0435 34.7237C31.3063 34.3048 30.4729 34.0846 29.625 34.0846C28.7771 34.0846 27.9437 34.3048 27.2065 34.7237L23.5408 36.8173C23.168 37.0313 22.8582 37.3399 22.6425 37.7118C22.4269 38.0837 22.3131 38.5059 22.3125 38.9358V40.4688C22.3125 40.792 22.1841 41.102 21.9555 41.3305C21.727 41.5591 21.417 41.6875 21.0938 41.6875C20.7705 41.6875 20.4605 41.5591 20.232 41.3305C20.0034 41.102 19.875 40.792 19.875 40.4688V38.9358C19.8762 38.0765 20.1038 37.2326 20.5349 36.4892C20.9659 35.7458 21.5852 35.1291 22.3303 34.7011L25.9973 32.6076C27.1031 31.9792 28.3532 31.6489 29.625 31.6489C30.8968 31.6489 32.1469 31.9792 33.2527 32.6076L36.9185 34.7011C37.6639 35.1288 38.2835 35.7455 38.7148 36.4889C39.1461 37.2323 39.3738 38.0763 39.375 38.9358ZM29.625 29.5C30.5892 29.5 31.5317 29.2141 32.3334 28.6784C33.1351 28.1427 33.7599 27.3814 34.1289 26.4906C34.4979 25.5998 34.5944 24.6196 34.4063 23.6739C34.2182 22.7283 33.7539 21.8596 33.0721 21.1779C32.3904 20.4961 31.5217 20.0318 30.5761 19.8437C29.6304 19.6556 28.6502 19.7521 27.7594 20.1211C26.8686 20.4901 26.1073 21.1149 25.5716 21.9166C25.0359 22.7183 24.75 23.6608 24.75 24.625C24.7513 25.9175 25.2653 27.1568 26.1793 28.0707C27.0932 28.9847 28.3325 29.4987 29.625 29.5ZM29.625 22.1875C30.1071 22.1875 30.5784 22.3305 30.9792 22.5983C31.38 22.8661 31.6925 23.2468 31.877 23.6922C32.0614 24.1376 32.1097 24.6277 32.0157 25.1005C31.9216 25.5734 31.6895 26.0077 31.3486 26.3486C31.0077 26.6895 30.5734 26.9216 30.1005 27.0157C29.6277 27.1097 29.1376 27.0614 28.6922 26.877C28.2468 26.6925 27.8661 26.38 27.5983 25.9792C27.3305 25.5784 27.1875 25.1071 27.1875 24.625C27.1883 23.9788 27.4454 23.3593 27.9024 22.9024C28.3593 22.4454 28.9788 22.1883 29.625 22.1875Z" fill="#FFD900"/>
</svg>
