<svg width="60" height="59" viewBox="0 0 60 59" fill="none" xmlns="http://www.w3.org/2000/svg">
<ellipse cx="29.8319" cy="29.3063" rx="29.4247" ry="28.8993" fill="#EDEDFF"/>
<path d="M26.6717 25.344L26.206 24.8019H33.7747L33.3786 25.2612L33.3664 25.2754L33.3552 25.2905L33.2945 25.3725L33.2786 25.3941L33.2651 25.4172C33.2564 25.4321 33.2394 25.4434 33.2166 25.4434H26.7724C26.7496 25.4434 26.7326 25.4321 26.7239 25.4172L26.7011 25.3782L26.6717 25.344ZM44.3448 14.5H15.6552C14.4726 14.5 13.5 15.4586 13.5 16.6415V22.6604C13.5 23.6713 14.2104 24.5185 15.1552 24.7434V41.2642C15.1552 43.0544 16.6188 44.5 18.4138 44.5H41.5862C43.3812 44.5 44.8448 43.0544 44.8448 41.2642V24.7434C45.7896 24.5185 46.5 23.6713 46.5 22.6604V16.6415C46.5 15.4586 45.5274 14.5 44.3448 14.5ZM42.7414 41.2642C42.7414 41.8869 42.2243 42.4057 41.5862 42.4057H18.4138C17.7757 42.4057 17.2586 41.8869 17.2586 41.2642V24.8019H23.4482L24.9684 26.5649C25.3628 27.1749 26.0479 27.5432 26.7779 27.5432H33.2221C33.9521 27.5432 34.6371 27.1749 35.0316 26.5649L36.5518 24.8019H42.7414V41.2642ZM44.3966 22.6604C44.3966 22.6704 44.3929 22.6814 44.3824 22.6918C44.3718 22.7023 44.3589 22.7075 44.3448 22.7075H15.6552C15.6411 22.7075 15.6282 22.7023 15.6176 22.6918C15.6071 22.6814 15.6034 22.6704 15.6034 22.6604V16.6415C15.6034 16.6315 15.6071 16.6205 15.6176 16.6101C15.6282 16.5996 15.6411 16.5943 15.6552 16.5943H44.3448C44.3589 16.5943 44.3718 16.5996 44.3824 16.6101C44.3929 16.6205 44.3966 16.6315 44.3966 16.6415V22.6604Z" fill="#6262FF" stroke="#6262FF"/>
</svg>
